<svg xmlns="http://www.w3.org/2000/svg" xmlns:xlink="http://www.w3.org/1999/xlink" version="1.1" x="0px" y="0px" viewBox="0 0 68 85" style="enable-background:new 0 0 68 68;" xml:space="preserve"><g><path d="M34,18.7C19,18.7,6.3,31,3.4,34C6.3,37,19,49.3,34,49.3C49,49.3,61.7,37,64.6,34C61.7,31,49,18.7,34,18.7z M34,47.1   c-7.2,0-13.1-5.9-13.1-13.1c0-7.2,5.9-13.1,13.1-13.1S47.1,26.8,47.1,34C47.1,41.2,41.2,47.1,34,47.1z"/><path d="M34,24.4c-0.3,0-0.5,0-0.7,0c-0.3,0-0.6,0.2-0.8,0.4c-0.2,0.3-0.2,0.6-0.1,0.9c0.6,1.8,0.3,4-0.8,5.4c-1,1.3-2.4,2-4.2,2   c-0.6,0-1.2-0.1-1.7-0.3c-0.3-0.1-0.6,0-0.9,0.2c-0.3,0.2-0.4,0.5-0.4,0.8c0,0,0,0.1,0,0.1c0,5.3,4.3,9.6,9.6,9.6s9.6-4.3,9.6-9.6   C43.6,28.7,39.3,24.4,34,24.4z"/><path d="M16.6,18.6c0.2,0.3,0.5,0.5,0.9,0.5c0.2,0,0.3,0,0.5-0.1c0.5-0.3,0.7-0.9,0.4-1.4l-1.3-2.3c-0.3-0.5-0.9-0.7-1.4-0.4   c-0.5,0.3-0.7,0.9-0.4,1.4L16.6,18.6z"/><path d="M22.9,15.7c0.1,0.4,0.5,0.7,1,0.7c0.1,0,0.2,0,0.3,0c0.5-0.2,0.8-0.7,0.7-1.3l-0.8-2.5c-0.2-0.5-0.7-0.8-1.3-0.7   c-0.5,0.2-0.8,0.7-0.7,1.3L22.9,15.7z"/><path d="M30.6,15c0,0,0.1,0,0.1,0c0.5-0.1,1-0.5,0.9-1.1l-0.3-2.6c-0.1-0.5-0.5-0.9-1.1-0.9c-0.5,0.1-1,0.5-0.9,1.1l0.3,2.6   C29.7,14.7,30.1,15,30.6,15z"/><path d="M37.3,15c0,0,0.1,0,0.1,0c0.5,0,0.9-0.4,1-0.9l0.3-2.6c0.1-0.5-0.3-1-0.9-1.1c-0.6-0.1-1,0.3-1.1,0.9l-0.3,2.6   C36.4,14.5,36.8,15,37.3,15z"/><path d="M43.8,16.4c0.1,0,0.2,0,0.3,0c0.4,0,0.8-0.3,1-0.7l0.8-2.5c0.2-0.5-0.1-1.1-0.7-1.3c-0.5-0.2-1.1,0.1-1.3,0.7l-0.8,2.5   C43,15.6,43.3,16.2,43.8,16.4z"/><path d="M50,19c0.2,0.1,0.3,0.1,0.5,0.1c0.4,0,0.7-0.2,0.9-0.5l1.3-2.3c0.3-0.5,0.1-1.1-0.4-1.4c-0.5-0.3-1.1-0.1-1.4,0.4l-1.3,2.3   C49.3,18.1,49.5,18.7,50,19z"/><path d="M18,49c-0.5-0.3-1.1-0.1-1.4,0.4l-1.3,2.3c-0.3,0.5-0.1,1.1,0.4,1.4c0.2,0.1,0.3,0.1,0.5,0.1c0.4,0,0.7-0.2,0.9-0.5   l1.3-2.3C18.7,49.9,18.5,49.3,18,49z"/><path d="M24.2,51.6c-0.5-0.2-1.1,0.1-1.3,0.7l-0.8,2.5c-0.2,0.5,0.1,1.1,0.7,1.3c0.1,0,0.2,0,0.3,0c0.4,0,0.8-0.3,1-0.7l0.8-2.5   C25,52.4,24.7,51.8,24.2,51.6z"/><path d="M30.7,53c-0.6-0.1-1,0.3-1.1,0.9l-0.3,2.6c-0.1,0.5,0.3,1,0.9,1.1c0,0,0.1,0,0.1,0c0.5,0,0.9-0.4,1-0.9l0.3-2.6   C31.6,53.5,31.2,53,30.7,53z"/><path d="M37.3,53c-0.5,0.1-1,0.5-0.9,1.1l0.3,2.6c0.1,0.5,0.5,0.9,1,0.9c0,0,0.1,0,0.1,0c0.5-0.1,1-0.5,0.9-1.1l-0.3-2.6   C38.3,53.3,37.9,52.9,37.3,53z"/><path d="M45.1,52.3c-0.2-0.5-0.7-0.8-1.3-0.7c-0.5,0.2-0.8,0.7-0.7,1.3l0.8,2.5c0.1,0.4,0.5,0.7,1,0.7c0.1,0,0.2,0,0.3,0   c0.5-0.2,0.8-0.7,0.7-1.3L45.1,52.3z"/><path d="M51.4,49.4c-0.3-0.5-0.9-0.7-1.4-0.4c-0.5,0.3-0.7,0.9-0.4,1.4l1.3,2.3c0.2,0.3,0.5,0.5,0.9,0.5c0.2,0,0.3,0,0.5-0.1   c0.5-0.3,0.7-0.9,0.4-1.4L51.4,49.4z"/></g><text x="0" y="83" fill="#000000" font-size="5px" font-weight="bold" font-family="'Helvetica Neue', Helvetica, Arial-Unicode, Arial, Sans-serif">Created by Azam Ishaq</text><text x="0" y="88" fill="#000000" font-size="5px" font-weight="bold" font-family="'Helvetica Neue', Helvetica, Arial-Unicode, Arial, Sans-serif">from the Noun Project</text></svg>